# xmcd CD database file
#
# Track frame offsets:
#	150
#	14106
#	31620
#	46362
#	71007
#	87609
#	102339
#	117414
#	136365
#	152815
#	168745
#	188879
#	206352
#	231183
#	248127
#	270471
#
# Disc length: 3817 seconds
#
# Revision: 0
# Processed by: cddbd v1.5.2PL0 Copyright (c) Steve Scherf et al.
# Submitted via: CDex 1.51
#
DISCID=e30ee710
DTITLE=LET FREEDOM SING - Let Freedom Sing - The Music Of The Civil Rights Movement
DYEAR=2009
DGENRE=Blues
TTITLE0=The Revolution Will Not Be Televised(Gill Scott-Heron)
TTITLE1=(For God's Sake)Give More Power To The People(The Chi-Lites)
TTITLE2=Smiling Faces Sometimes(The Undisputed Truth)
TTITLE3=Inner City Blues(Make Me Wanna Holler)(Marvin Gaye)
TTITLE4=Hercules(Aaron Neville)
TTITLE5=Get Up, Stand Up(Bob Marley And The Wailers)
TTITLE6=Fight The Power, Part 1(The Isley Brothers)
TTITLE7=Give The People What They Want(The O' Jays)
TTITLE8=Black Is Black(Jungle Brothers)
TTITLE9=Sister Rosa(The Neville Brothers)
TTITLE10=The Pride(Chuck D)
TTITLE11=Unity(Sounds Of Blackness)
TTITLE12=None Of Us Are Free(Solomon Burke)
TTITLE13=Eyes On The Prize(The Sojourners)
TTITLE14=Down In Mississippi(Movis Staples)
TTITLE15=Free At Last(The Blind Boys Of Alabama)
EXTD=YEAR: 2009
EXTT0=
EXTT1=
EXTT2=
EXTT3=
EXTT4=
EXTT5=
EXTT6=
EXTT7=
EXTT8=
EXTT9=
EXTT10=
EXTT11=
EXTT12=
EXTT13=
EXTT14=
EXTT15=
PLAYORDER=
